<?xml version="1.0" standalone="no"?>
<!DOCTYPE svg PUBLIC "-//W3C//DTD SVG 20010904//EN"
 "http://www.w3.org/TR/2001/REC-SVG-20010904/DTD/svg10.dtd">
<svg version="1.0" xmlns="http://www.w3.org/2000/svg"
 width="2304.000000pt" height="1792.000000pt" viewBox="0 0 2304.000000 1792.000000"
 preserveAspectRatio="xMidYMid meet">

<g transform="translate(0.000000,1792.000000) scale(0.100000,-0.100000)"
 stroke="none">
<path d="M8170 8960 l0 -3300 695 0 695 0 2 1383 c1 760 1 1496 1 1635 -1 278
-1 279 55 183 14 -25 56 -91 92 -146 37 -55 156 -242 265 -415 109 -173 228
-362 266 -420 37 -58 98 -154 136 -215 37 -60 113 -182 170 -270 56 -88 117
-185 136 -215 19 -30 86 -136 149 -235 125 -195 418 -661 616 -980 69 -110
140 -224 159 -252 l33 -53 814 0 815 0 -41 66 c-22 37 -60 99 -86 138 -86 134
-476 758 -770 1231 -85 138 -181 291 -212 340 -31 50 -92 146 -135 215 -44 69
-109 172 -145 230 -37 58 -123 195 -192 305 -127 204 -267 424 -376 595 -34
52 -75 118 -92 145 -17 28 -59 94 -93 147 -34 53 -97 152 -141 220 -335 523
-885 1347 -1476 2208 -220 320 -297 432 -470 683 l-54 77 -408 0 -408 0 0
-3300z" fill="#4F7396"/>
<path d="M9620 12254 c0 -9 126 -199 799 -1207 388 -582 744 -1116 791 -1187
87 -131 294 -442 449 -673 47 -70 102 -152 121 -182 19 -31 82 -124 139 -208
57 -83 161 -237 232 -342 71 -104 176 -257 233 -340 58 -82 151 -217 207 -300
101 -149 158 -229 450 -645 84 -118 186 -264 227 -325 42 -60 125 -180 187
-265 61 -85 142 -200 179 -255 38 -55 86 -122 106 -150 65 -88 226 -318 270
-385 24 -36 54 -78 66 -93 l24 -28 334 -3 335 -3 3 3281 c2 1804 1 3289 -1
3298 -3 16 -52 17 -691 16 l-687 -1 -5 -156 c-2 -86 -3 -801 -1 -1590 1 -789
1 -1432 -1 -1430 -7 7 -1262 1890 -1452 2179 -100 151 -286 432 -413 625 -127
192 -232 354 -234 360 -3 9 -1667 18 -1667 9z" fill="#2557D6"/>
</g>
</svg>